<svg width="920" height="397" viewBox="0 0 920 397" fill="none" xmlns="http://www.w3.org/2000/svg">
<path fill-rule="evenodd" clip-rule="evenodd" d="M348.145 69.0935C354.577 51.6775 371.353 39.2053 390.948 39.2053C535.319 39.2053 679.689 39.2053 824.057 39.2053C841.895 39.2053 859.211 45.3248 871.956 58.0732C883.389 69.5135 889.559 85.0594 889.559 101.193V101.35C889.559 107.811 888.622 113.96 886.87 119.701C888.141 122.219 889.163 124.809 889.932 127.454C891.945 129.088 893.873 130.828 895.711 132.664C903.341 140.293 909.116 149.408 913.142 159.398C915.304 164.756 916.875 170.331 917.873 176.019C918.802 181.325 919.239 186.706 919.239 192.092V313.509C919.239 338.638 898.752 359.135 873.631 359.135C688.698 359.135 513.901 359.135 335.407 359.135C329.77 359.135 324.365 358.102 319.375 356.219C308.46 364.96 296.527 372.433 283.526 378.235C192.514 418.856 89.4067 391.629 32.4421 309.517C-30.7682 218.402 1.70438 80.4012 101.073 25.2979C186.151 -21.8776 285.587 -0.6992 348.145 69.0917V69.0935Z" fill="white"/>
<path fill-rule="evenodd" clip-rule="evenodd" d="M141.778 255.08L69.0588 149.585C96.3566 64.1943 237.24 7.2135 326.741 115.272L319.111 172.003L252.739 168.95C236.938 103.414 86.8146 113.186 141.779 255.08H141.778Z" fill="white"/>
<path fill-rule="evenodd" clip-rule="evenodd" d="M319.112 172L252.74 168.947C219.792 97.583 88.5546 151.598 151.019 246.541L105.245 188.028C116.181 120.187 179.501 88.7257 239.008 115.523L228.328 118.067L251.468 134.858L253.503 162.081L277.154 146.817L303.601 155.719L296.227 127.736L313.264 106.112L286.561 102.549L272.576 78.1253L263.929 95.9332C203.745 54.6365 104.4 82.0258 83.376 156.738L65.7434 121.983C115.614 32.9916 252.712 11.0349 326.744 115.27L319.114 172H319.112Z" fill="url(#paint0_linear)"/>
<path fill-rule="evenodd" clip-rule="evenodd" d="M58.9095 136.891C44.1367 162.348 39.8143 195.34 50.8842 239.434C141.101 364.952 236.625 357.129 320.836 278.219L277.153 247.049C193.555 303.457 119.672 276.487 58.9114 136.891H58.9095Z" fill="white"/>
<path fill-rule="evenodd" clip-rule="evenodd" d="M253.251 229.75L277.155 247.049C250.042 294.835 186.974 305.45 141.176 274.552C111.47 254.512 81.5399 215.503 51.3376 153.429L68.1215 116.795C79.5252 141.316 95.0069 166.745 110.188 190.675C152.824 257.873 187.11 271.799 222.42 256.658C233.158 252.054 243.498 243.299 253.251 229.75Z" fill="url(#paint1_linear)"/>
<path fill-rule="evenodd" clip-rule="evenodd" d="M45.23 204.82C126.437 371.71 263.589 329.988 301.06 264.35L325.727 281.65C307.999 308.166 287.438 326.53 264.947 336.567C176.811 375.904 102.89 331.043 69.9104 283.501C56.7531 264.536 48.3062 238.633 45.2318 204.82H45.23Z" fill="black"/>
<path fill-rule="evenodd" clip-rule="evenodd" d="M368.68 155.617C370.764 155.617 372.861 155.817 374.967 156.212C377.021 156.599 379.052 157.183 381.058 157.961C383.093 158.749 385.003 159.726 386.788 160.889C388.618 162.082 390.288 163.431 391.792 164.935C394.838 167.983 397.299 171.827 399.17 176.467C400.112 178.802 400.813 181.278 401.27 183.891C401.725 186.483 401.953 189.217 401.953 192.091V313.509H377.862V249.8H359.498V313.509H335.407V192.302C335.407 186.347 336.334 181.067 338.191 176.467C339.114 174.179 340.198 172.074 341.446 170.151C342.712 168.196 344.141 166.443 345.729 164.898C347.281 163.386 348.949 162.048 350.73 160.889C352.542 159.708 354.424 158.732 356.372 157.961C358.306 157.194 360.323 156.61 362.42 156.212C364.505 155.817 366.593 155.617 368.68 155.617ZM368.68 179.707C367.262 179.768 366.029 180.052 364.985 180.55C363.962 181.041 363.069 181.767 362.309 182.73C361.47 183.792 360.813 185.091 360.343 186.621C359.836 188.273 359.547 190.167 359.483 192.302H359.498V225.697H377.862V192.091H377.877C377.814 189.958 377.524 188.073 377.017 186.435C376.566 184.975 375.914 183.723 375.069 182.678L375.081 182.668C374.316 181.726 373.424 181.017 372.411 180.543C371.355 180.048 370.111 179.768 368.68 179.707ZM454.228 313.509C452.14 313.509 450.053 313.311 447.965 312.913C445.87 312.516 443.854 311.932 441.917 311.166C439.97 310.396 438.089 309.418 436.278 308.238C434.496 307.077 432.829 305.739 431.275 304.228C429.674 302.667 428.245 300.93 426.992 299.019C425.773 297.16 424.693 295.087 423.755 292.802C422.805 290.484 422.097 288 421.636 285.35C421.181 282.738 420.953 279.966 420.953 277.036V261.8H445.046V277.036H445.031C445.096 279.085 445.384 280.92 445.889 282.54C446.363 284.048 447.02 285.335 447.857 286.395C448.616 287.358 449.51 288.086 450.532 288.575C451.577 289.075 452.81 289.357 454.228 289.419C455.644 289.357 456.879 289.075 457.923 288.575C458.944 288.086 459.837 287.358 460.598 286.395C461.436 285.335 462.093 284.048 462.565 282.54C463.07 280.92 463.358 279.085 463.423 277.036H463.41C463.41 272.44 462.727 268.248 461.363 264.465C460.66 262.513 459.843 260.574 458.916 258.652C458.024 256.802 457.03 254.997 455.94 253.245C453.719 249.677 451.316 246.4 448.73 243.415C447.2 241.648 445.861 240.079 444.723 238.716C443.747 237.548 442.539 236.06 441.087 234.245L437.058 229.254C435.603 227.459 434.385 225.968 433.375 224.743C432.088 223.183 430.928 221.668 429.894 220.199C428.853 218.719 427.857 217.166 426.91 215.546C425.96 213.923 425.117 212.236 424.384 210.493H424.367C423.662 208.815 423.044 207.018 422.514 205.103C421.983 203.181 421.589 201.131 421.335 198.957C421.082 196.789 420.953 194.499 420.953 192.091C420.953 186.276 421.882 181.067 423.738 176.467C424.66 174.179 425.745 172.074 426.992 170.151C428.26 168.196 429.689 166.443 431.275 164.898C432.829 163.386 434.496 162.048 436.278 160.889C438.089 159.708 439.97 158.732 441.917 157.961C443.854 157.194 445.87 156.61 447.965 156.212C450.053 155.817 452.14 155.617 454.228 155.617C456.257 155.617 458.308 155.817 460.373 156.212C462.373 156.597 464.382 157.181 466.393 157.961C468.437 158.752 470.351 159.723 472.133 160.87C473.924 162.024 475.606 163.368 477.179 164.898C478.765 166.443 480.194 168.196 481.462 170.151C482.708 172.072 483.794 174.179 484.717 176.467C485.658 178.802 486.359 181.278 486.818 183.891C487.271 186.483 487.501 189.217 487.501 192.091V207.327H463.41V192.091H463.423C463.358 190.04 463.07 188.206 462.565 186.588C462.093 185.078 461.436 183.79 460.598 182.73C459.837 181.767 458.944 181.041 457.923 180.55C456.879 180.052 455.646 179.768 454.228 179.707C452.808 179.768 451.575 180.052 450.532 180.55C449.51 181.041 448.616 181.767 447.857 182.73C447.02 183.79 446.363 185.078 445.889 186.588C445.384 188.206 445.096 190.04 445.031 192.091H445.046C445.046 194.12 445.189 195.977 445.477 197.658C445.76 199.312 446.174 200.814 446.719 202.163C447.314 203.634 448.003 205.06 448.784 206.435C449.553 207.788 450.435 209.125 451.431 210.442C452.508 211.866 453.61 213.232 454.735 214.535C455.907 215.892 457.157 217.25 458.481 218.611C459.966 220.134 461.416 221.681 462.828 223.25C464.285 224.87 465.781 226.593 467.314 228.42L467.366 228.51C468.762 230.255 469.924 231.744 470.857 232.983V233.002C472.079 234.625 473.235 236.202 474.323 237.734C475.552 239.463 476.705 241.236 477.776 243.048C478.811 244.8 479.839 246.715 480.858 248.788C481.88 250.877 482.779 252.969 483.55 255.061C484.32 257.159 485.018 259.391 485.639 261.759C486.269 264.166 486.738 266.63 487.04 269.142C487.346 271.695 487.501 274.326 487.501 277.036C487.501 282.995 486.566 288.251 484.699 292.802C483.76 295.087 482.68 297.16 481.462 299.019C480.21 300.93 478.78 302.666 477.179 304.228C475.606 305.758 473.924 307.104 472.131 308.257C470.351 309.403 468.437 310.373 466.393 311.166C464.38 311.947 462.373 312.531 460.373 312.913C458.308 313.311 456.257 313.509 454.228 313.509ZM530.168 277.036C530.168 279.375 530.446 281.36 531.004 282.99C531.491 284.417 532.194 285.58 533.114 286.478C534.181 287.519 535.248 288.28 536.317 288.76H536.334C537.293 289.191 538.298 289.408 539.35 289.408C540.4 289.408 541.408 289.191 542.365 288.76H542.383C543.451 288.28 544.519 287.519 545.586 286.478C546.504 285.582 547.209 284.417 547.696 282.99C548.252 281.36 548.532 279.375 548.532 277.036V261.8H572.623V277.036C572.623 280.883 572.22 284.486 571.416 287.842C570.597 291.266 569.36 294.366 567.711 297.132C566.101 299.827 564.277 302.197 562.24 304.235L562.249 304.244C560.184 306.31 557.888 308.04 555.365 309.427C552.903 310.782 550.33 311.803 547.65 312.484C544.971 313.169 542.204 313.509 539.35 313.509C536.496 313.509 533.728 313.169 531.049 312.488C528.37 311.803 525.797 310.782 523.335 309.427C520.811 308.039 518.516 306.31 516.451 304.244L516.461 304.235C514.423 302.197 512.597 299.827 510.989 297.132C509.34 294.364 508.103 291.266 507.282 287.842C506.478 284.486 506.077 280.883 506.077 277.036V192.091C506.077 188.243 506.478 184.639 507.282 181.284C508.103 177.859 509.34 174.761 510.989 171.995C514.248 166.535 518.365 162.433 523.335 159.698C525.812 158.336 528.385 157.315 531.049 156.638C533.728 155.958 536.496 155.617 539.35 155.617C542.204 155.617 544.971 155.958 547.65 156.638C550.314 157.315 552.888 158.336 555.365 159.698C560.335 162.433 564.45 166.533 567.711 171.995C569.36 174.761 570.597 177.859 571.416 181.284C572.22 184.639 572.623 188.243 572.623 192.091V207.327H548.532V192.091C548.532 189.751 548.252 187.767 547.696 186.138C547.209 184.71 546.504 183.546 545.586 182.65C544.519 181.608 543.451 180.845 542.383 180.365H542.365C541.408 179.934 540.4 179.72 539.35 179.72C538.298 179.72 537.293 179.934 536.334 180.365H536.317C535.248 180.845 534.181 181.608 533.114 182.65C532.194 183.546 531.491 184.71 531.002 186.138C530.446 187.767 530.168 189.751 530.168 192.091V277.036ZM624.685 155.617C626.767 155.617 628.866 155.817 630.972 156.212C633.026 156.599 635.057 157.183 637.063 157.961C639.098 158.749 641.008 159.726 642.793 160.889C644.624 162.082 646.293 163.431 647.795 164.935C650.843 167.983 653.304 171.827 655.175 176.467C656.117 178.802 656.818 181.278 657.275 183.891C657.73 186.483 657.958 189.217 657.958 192.091V313.509H633.867V249.8H615.503V313.509H591.412V192.302C591.412 186.347 592.339 181.067 594.196 176.467C595.119 174.179 596.205 172.072 597.449 170.151C598.719 168.196 600.147 166.443 601.734 164.898C603.286 163.386 604.954 162.048 606.735 160.889C608.547 159.708 610.429 158.732 612.377 157.961C614.311 157.194 616.33 156.612 618.425 156.212C620.51 155.817 622.598 155.617 624.685 155.617ZM624.685 179.707C623.267 179.768 622.032 180.052 620.99 180.55C619.967 181.041 619.074 181.767 618.315 182.73C617.475 183.792 616.818 185.091 616.348 186.621C615.841 188.273 615.552 190.167 615.488 192.302H615.503V225.697H633.867V192.091H633.882C633.817 189.958 633.529 188.073 633.022 186.435C632.571 184.975 631.92 183.721 631.074 182.678L631.086 182.668C630.321 181.726 629.429 181.017 628.416 180.543C627.36 180.048 626.116 179.768 624.685 179.707ZM681.575 155.617H710.231C712.225 155.617 714.253 155.807 716.314 156.186C718.309 156.552 720.284 157.102 722.237 157.836C724.241 158.586 726.14 159.536 727.933 160.684C729.738 161.839 731.419 163.175 732.971 164.685C734.561 166.234 735.986 167.944 737.245 169.814C738.482 171.648 739.588 173.684 740.56 175.916C741.547 178.178 742.288 180.63 742.778 183.269C743.263 185.878 743.506 188.607 743.506 191.453V213.54C743.506 216.396 743.286 219.096 742.849 221.642C742.403 224.241 741.728 226.649 740.827 228.862C739.958 230.999 738.928 233.009 737.741 234.892C737.374 235.476 736.991 236.044 736.596 236.598C738.782 239.108 740.653 242.029 742.206 245.356C743.368 247.848 744.231 250.545 744.795 253.447C745.351 256.306 745.629 259.355 745.629 262.595V313.509H721.788L721.556 262.847C721.439 260.747 721.092 258.862 720.515 257.19C719.989 255.662 719.262 254.331 718.337 253.2V253.182C717.51 252.161 716.585 251.369 715.568 250.815C714.63 250.302 713.557 249.962 712.354 249.8H701.051V313.509H676.958V155.617H681.575ZM701.051 225.697H710.231V225.71C711.662 225.649 712.908 225.369 713.962 224.876C714.977 224.4 715.868 223.691 716.631 222.748L716.62 222.739C717.46 221.703 718.109 220.455 718.57 218.999C719.075 217.394 719.363 215.573 719.428 213.54H719.413V191.878H719.428C719.363 189.844 719.075 188.025 718.57 186.418C718.109 184.962 717.46 183.714 716.62 182.678L716.631 182.668C715.868 181.726 714.977 181.017 713.962 180.543C712.908 180.048 711.662 179.768 710.231 179.707V179.72H701.051V225.697ZM768.82 155.617H788.296V313.509H764.203V155.617H768.82ZM840.356 155.617C842.44 155.617 844.537 155.817 846.645 156.212C848.697 156.599 850.729 157.183 852.736 157.961C854.769 158.749 856.681 159.726 858.465 160.889C860.295 162.082 861.964 163.431 863.468 164.935C866.514 167.983 868.975 171.827 870.846 176.467C871.788 178.802 872.49 181.278 872.948 183.891C873.402 186.483 873.629 189.217 873.629 192.091V313.509H849.538V249.8H831.174V313.509H807.084V192.302C807.084 186.347 808.011 181.067 809.867 176.467C810.79 174.179 811.876 172.072 813.122 170.151C814.391 168.196 815.82 166.443 817.405 164.898C818.957 163.386 820.627 162.048 822.407 160.889C824.218 159.708 826.1 158.732 828.048 157.961C829.984 157.194 832.001 156.612 834.096 156.212C836.181 155.817 838.271 155.617 840.356 155.617ZM840.356 179.707C838.939 179.768 837.706 180.052 836.661 180.55C835.64 181.041 834.745 181.767 833.986 182.73C833.146 183.792 832.49 185.091 832.02 186.621C831.512 188.273 831.225 190.167 831.16 192.302H831.174V225.697H849.538V192.091H849.553C849.49 189.958 849.201 188.073 848.693 186.435C848.242 184.975 847.591 183.721 846.746 182.678L846.757 182.668C845.992 181.726 845.102 181.017 844.087 180.543C843.032 180.048 841.787 179.768 840.356 179.707Z" fill="black"/>
<path d="M380.094 140.682C384.968 140.682 389.136 139.11 392.202 136.121C395.348 132.974 397.234 128.097 397.234 121.648V84.8356H390.945V121.726C390.945 130.456 386.384 134.941 380.172 134.941C374.434 134.941 370.973 132.188 367.593 127.075L363.112 130.929C366.571 136.593 371.839 140.682 380.094 140.682ZM469.333 140.762C483.091 140.762 492.292 132.423 492.292 116.377V84.8356H486.079V116.849C486.079 128.883 479.632 135.019 469.49 135.019C458.953 135.019 452.665 128.333 452.665 116.456V84.8356H446.453V116.849C446.453 132.423 455.73 140.762 469.333 140.762ZM542.376 139.896H548.43V94.7473L583.967 139.896H588.922V84.8356H582.867V128.963L548.193 84.8356H542.376V139.896ZM640.421 139.896H646.631V84.8356H640.421V139.896ZM723.683 140.84C740.432 140.84 751.832 127.547 751.832 112.367V112.208C751.832 97.0279 740.588 83.8912 723.842 83.8912C707.094 83.8912 695.694 97.1846 695.694 112.367V112.523C695.694 127.704 706.937 140.84 723.683 140.84ZM723.842 135.098C711.261 135.098 702.141 124.873 702.141 112.367V112.208C702.141 99.7022 711.104 89.6337 723.683 89.6337C736.264 89.6337 745.385 99.859 745.385 112.367V112.523C745.385 125.029 736.421 135.098 723.842 135.098ZM800.344 139.896H806.554V118.501H822.28L838.239 139.896H845.867L828.962 117.4C837.611 115.827 843.901 110.478 843.901 101.354V101.197C843.901 96.8711 842.329 93.0154 839.655 90.341C836.197 86.881 830.77 84.8356 824.009 84.8356H800.344V139.896ZM806.554 112.917V90.5781H823.537C832.423 90.5781 837.611 94.667 837.611 101.432V101.589C837.611 108.67 831.714 112.917 823.459 112.917H806.554Z" fill="black"/>
<defs>
<linearGradient id="paint0_linear" x1="114.401" y1="228.776" x2="278.151" y2="63.6048" gradientUnits="userSpaceOnUse">
<stop stop-color="#0E0057"/>
<stop offset="0.180392" stop-color="#110066"/>
<stop offset="0.329412" stop-color="#180092"/>
<stop offset="1" stop-color="#190096"/>
</linearGradient>
<linearGradient id="paint1_linear" x1="93.813" y1="132.333" x2="234.738" y2="276.434" gradientUnits="userSpaceOnUse">
<stop stop-color="#FF0000"/>
<stop offset="0.670588" stop-color="#F70000"/>
<stop offset="1" stop-color="#9C0000"/>
</linearGradient>
</defs>
</svg>
