<?xml version="1.0" encoding="UTF-8"?>
<!DOCTYPE svg PUBLIC "-//W3C//DTD SVG 1.1//EN" "http://www.w3.org/Graphics/SVG/1.1/DTD/svg11.dtd">
<!-- Creator: CorelDRAW 2021 (64 Bit) -->
<svg xmlns="http://www.w3.org/2000/svg" xml:space="preserve" width="41.3177mm" height="18.0666mm" version="1.1" style="shape-rendering:geometricPrecision; text-rendering:geometricPrecision; image-rendering:optimizeQuality; fill-rule:evenodd; clip-rule:evenodd"
viewBox="0 0 4131.76 1806.66"
 xmlns:xlink="http://www.w3.org/1999/xlink"
 xmlns:xodm="http://www.corel.com/coreldraw/odm/2003">
 <defs>
  <style type="text/css">
   <![CDATA[
    .fil1 {fill:red}
    .fil0 {fill:red;fill-rule:nonzero}
    .fil2 {fill:#FFCC00;fill-rule:nonzero}
   ]]>
  </style>
 </defs>
 <g id="Camada_x0020_1">
  <metadata id="CorelCorpID_0Corel-Layer"/>
  <g id="_2582920948224">
   <path class="fil0" d="M3279.43 145.4c-18.21,32.25 -24.47,62.85 -26.21,85.29 -67.86,-16.45 -202.85,-45.95 -283.72,-42.08 -88.83,2.41 -331.83,76.58 -331.83,76.58 -4.6,-8.13 -8.41,-15.83 -11.56,-23.05l-0.07 0.01c-0.94,-2.12 -1.87,-4.26 -2.67,-6.28l0.1 -0.02c-14.35,-35.76 -12.34,-58.06 -12.34,-58.07l262.96 -63.37c4.48,-1.08 110.52,-25.36 198.41,-8.56l206.93 39.55z"/>
   <path class="fil0" d="M4007.79 534.66l-103.81 132.57 -24.71 -19.33 -10.16 -7.97 -78.85 -61.75c-4.65,-3.5 -35.57,-27.8 -42.75,-33.45l-0.18 -0.15 -1.3 -1.02 -192.91 -151.03c-34.25,-26.87 -63,-17.93 -76.52,-10.72 128.55,-85.54 202.57,-98.1 209.38,-99.1l0.01 0 297.13 232.65 24.67 19.3z"/>
   <path class="fil0" d="M3748.9 545.82l-0.64 -0.51 -0.75 -0.58 -0.18 -0.15 -1.3 -1.02c0,0 -36.92,54.57 -86.59,100.29 -45.2,41.6 -95.75,80.89 -114.48,90.17l-164.66 -181.63c0,0 -24.48,-30.25 -23.24,-68.82 -6.89,7.83 -19.61,19.83 -26.8,29.22 -0.01,0 -0.01,0 -0.02,-0.01 -0.01,0.01 -0.01,0.02 -0.02,0.03l-0.33 -0.2 -0.8 -0.47c-0.01,0 -0.02,-0.01 -0.03,-0.02l-1.41 -0.83c-0.6,4.49 -1.09,7.85 -1.4,9.45 -1.74,9.16 -6.6,25.33 4.2,37.92 11.24,13.08 122.13,137.95 194.72,230.12 26.34,33.44 162.91,-86.95 200.78,-129.55 30.5,-34.31 55.68,-68.91 64.31,-81.05l-41.36 -32.36zm-160.99 -17.39c-22.67,-44.41 -126.31,-136.47 -126.31,-136.47 0,0 -0.03,0.02 -0.1,0.07 -7.29,5.01 -14.75,10.25 -22.37,15.73 0,0 -0.89,0.81 -2.45,2.01 -1.67,1.28 -4.11,3.01 -7.04,4.64 31.85,30.39 121.68,108.39 138.6,132.24 12.85,18.11 27.3,47.47 36.48,74.5 1.15,5.98 9.28,3.27 9.43,-3.25 -2.36,-25.27 -12.24,-62 -26.24,-89.47z"/>
   <path class="fil0" d="M1254.68 695.21c73.55,0 128.71,-55.51 128.71,-123.95l0 -0.68c0,-68.45 -54.48,-123.27 -128.03,-123.27 -73.56,0 -128.72,55.5 -128.72,123.95l0 0.68c0,68.45 54.48,123.27 128.04,123.27zm0.68 -59.59c-36.44,0 -61.3,-29.97 -61.3,-64.36l0 -0.68c0,-34.39 24.18,-63.68 60.62,-63.68 36.43,0 60.95,29.63 60.95,64.36l0 0.68c0,34.39 -24.18,63.68 -60.27,63.68z"/>
   <path class="fil0" d="M1678.56 694.53c57.89,0 96.37,-28.95 96.37,-77.64l0 -0.68c0,-44.61 -34.05,-62.32 -88.54,-74.23 -33.37,-7.5 -41.54,-12.26 -41.54,-23.16l0 -0.68c0,-8.85 7.83,-15.33 23.84,-15.33 21.11,0 44.95,7.84 66.74,23.5l33.03 -46.65c-25.88,-20.77 -57.55,-31.67 -98.07,-31.67 -57.21,0 -92.28,32.01 -92.28,76.28l0 0.68c0,48.69 39.16,63 89.89,74.57 32.7,7.84 40.53,12.94 40.53,23.16l0 0.68c0,10.21 -9.54,16.34 -27.58,16.34 -27.59,0 -53.47,-9.87 -77.3,-28.6l-36.78 43.93c29.63,26.22 69.47,39.5 111.69,39.5z"/>
   <polygon class="fil0" points="2027.53,690.44 2093.58,690.44 2093.58,509.97 2165.09,509.97 2165.09,452.08 1956.36,452.08 1956.36,509.97 2027.53,509.97 "/>
   <path class="fil0" d="M894.64 1292.8c136.57,0 239,-103.06 239,-230.15l0 -1.27c0,-127.09 -101.17,-228.89 -237.74,-228.89 -136.57,0 -239,103.06 -239,230.16l0 1.26c0,127.09 101.16,228.89 237.74,228.89zm1.26 -110.65c-67.65,0 -113.81,-55.64 -113.81,-119.5l0 -1.27c0,-63.86 44.89,-118.24 112.55,-118.24 67.65,0 113.18,55.01 113.18,119.51l0 1.26c0,63.86 -44.9,118.24 -111.92,118.24zm300.97 101.8l122.66 0 0 -134.05 54.38 0 89.15 134.05 141 0 -105.59 -154.28c55.01,-23.4 91.05,-68.29 91.05,-136.58l0 -1.26c0,-43.63 -13.28,-77.14 -39.2,-103.06 -29.72,-29.72 -76.51,-47.43 -144.16,-47.43l-209.29 0 0 442.61zm122.66 -230.16l0 -106.85 80.94 0c40.46,0 66.39,17.7 66.39,53.11l0 1.26c0,32.25 -24.66,52.48 -65.76,52.48l-81.57 0zm331.96 230.16l122.66 0 0 -134.05 54.38 0 89.15 134.05 141 0 -105.59 -154.28c55.01,-23.4 91.05,-68.29 91.05,-136.58l0 -1.26c0,-43.63 -13.28,-77.14 -39.21,-103.06 -29.71,-29.72 -76.5,-47.43 -144.16,-47.43l-209.28 0 0 442.61zm122.66 -230.16l0 -106.85 80.93 0c40.47,0 66.39,17.7 66.39,53.11l0 1.26c0,32.25 -24.66,52.48 -65.75,52.48l-81.57 0zm331.95 230.16l359.14 0 0 -104.33 -237.74 0 0 -70.18 212.45 0 0 -96.74 -212.45 0 0 -67.66 234.58 0 0 -103.7 -355.98 0 0 442.61zm387.59 0l128.36 0 31.61 -79.67 171.35 0 31.62 79.67 131.51 0 -188.42 -445.77 -118.24 0 -187.79 445.77zm196.01 -175.15l49.95 -125.19 49.32 125.19 -99.27 0zm111.29 -304.13c42.99,0 65.75,-30.98 79.03,-93.58l-57.53 -15.8c-8.22,19.6 -15.18,29.08 -32.88,29.08 -9.49,0 -23.4,-4.42 -40.47,-10.12 -20.23,-6.95 -43,-14.54 -63.86,-14.54 -43.63,0 -65.76,31.62 -79.67,94.21l57.54 15.81c8.22,-20.23 15.8,-29.72 33.51,-29.72 8.85,0 22.76,5.06 39.83,10.75 20.87,6.96 43.63,13.91 64.5,13.91z"/>
   <path class="fil0" d="M3225.88 1292.8c136.57,0 239,-103.06 239,-230.15l0 -1.27c0,-127.09 -101.16,-228.89 -237.74,-228.89 -136.57,0 -239,103.06 -239,230.16l0 1.26c0,127.09 101.17,228.89 237.74,228.89zm1.26 -110.65c-67.65,0 -113.81,-55.64 -113.81,-119.5l0 -1.27c0,-63.86 44.89,-118.24 112.55,-118.24 67.65,0 113.18,55.01 113.18,119.51l0 1.26c0,63.86 -44.89,118.24 -111.92,118.24z"/>
   <path class="fil1" d="M2344.1 705.39c-176.61,-4.84 -178.79,-289.53 176.71,-446.15 -100.13,142.87 -79.02,159.04 -27.35,244.99 51.67,85.96 43.58,206.45 -149.36,201.16z"/>
   <path class="fil2" d="M412 1623.05c52.72,6.02 108.06,-3.76 166.04,-29.36 1146.97,-506.5 2797.7,119.85 3381.14,-528.04 185.38,-254.37 -56.14,-455.33 -39.59,-459.84 16.57,-4.52 48.16,-61.72 60.21,-54.94 163.05,91.71 210.5,477.72 64.8,608.42 -771.67,692.24 -2441.06,63.95 -3455.26,598.17 -118.9,62.62 -346.76,75.26 -454.06,-20.33 -95.66,-85.24 -127.12,-219 -133.28,-342.23 -22.51,-450.61 146,-973.02 475.76,-1246.65 70.78,-58.73 144.2,-100.15 220.25,-124.24 539.37,-170.85 595.58,624.33 27.27,681.05 -27.11,-1.5 -53.09,-9.03 -77.93,-22.58 -24.86,-13.56 -43.68,-31.26 -56.48,-53.09 -12.8,-21.84 -8.66,-45.55 12.43,-71.16 481.32,-45.56 377.47,-473.6 85.68,-323.01 -349.21,206.76 -568.16,961.65 -398.96,1305.38 24.1,48.94 64.76,76.42 121.98,82.45z"/>
   <path class="fil2" d="M3699.6 242.86l-13.1 39.77c0,0 -0.18,0.02 -0.51,0.08l-0.01 0c-6.81,1 -80.83,13.56 -209.39,99.1 0,0.01 -0.01,0.01 -0.02,0.02 -4.91,3.26 -9.9,6.64 -14.97,10.12 0,0 -21.6,15.98 -31.96,22.46 -7.33,4.08 -64.76,58.74 -68.78,64.31 -4.21,6.72 -21.67,22.41 -30.6,34.07 -0.62,-0.25 -2.23,-1.36 -2.61,-1.5l-8.12 -4.8c0,0 6.91,-161.18 12.29,-215.7l-77.63 -23.87c0,0 -13.23,-69.99 37.93,-141.42l264.58 -4.97c0,0 14.29,-0.14 31.62,11.25 17.31,11.4 110.62,77.23 110.62,77.23 0,0 12.69,8.13 0.66,33.85z"/>
  </g>
 </g>
</svg>
