<svg width="119" height="141" viewBox="0 0 119 141" fill="none" xmlns="http://www.w3.org/2000/svg">
<path d="M34.3025 117.696L33.1277 140.251C33.1277 140.251 82.8179 92.9575 89.0084 79.1198C95.1989 65.2822 83.5462 31.0523 83.5462 31.0523L57.6917 45.2541L34.3025 117.696Z" fill="#9F616A"/>
<path d="M110.493 21.5845L118.14 22.3128C118.14 22.3128 122.146 31.0523 109.765 31.7806L110.493 21.5845Z" fill="#9F616A"/>
<path d="M110.493 35.058L118.14 35.7863C118.14 35.7863 122.146 44.5258 109.765 45.2541L110.493 35.058Z" fill="#9F616A"/>
<path d="M110.493 49.6239L118.14 50.3522C118.14 50.3522 122.146 59.0917 109.765 59.82L110.493 49.6239Z" fill="#9F616A"/>
<path d="M108.308 64.1898L115.955 64.9181C115.955 64.9181 119.961 73.6576 107.58 74.3859L108.308 64.1898Z" fill="#9F616A"/>
<path d="M114.216 25.0955H113.636V9.19993C113.636 7.99178 113.398 6.79546 112.935 5.67927C112.473 4.56308 111.795 3.54889 110.941 2.6946C110.087 1.84031 109.073 1.16265 107.957 0.700306C106.84 0.237966 105.644 9.25634e-07 104.436 0H70.759C69.5508 -2.46829e-06 68.3545 0.237959 67.2383 0.700296C66.1221 1.16263 65.1079 1.84029 64.2536 2.69458C63.3993 3.54887 62.7217 4.56306 62.2593 5.67924C61.797 6.79543 61.559 7.99175 61.559 9.1999V96.4042C61.559 97.6123 61.797 98.8087 62.2593 99.9248C62.7217 101.041 63.3993 102.055 64.2536 102.91C65.1079 103.764 66.1221 104.441 67.2383 104.904C68.3545 105.366 69.5508 105.604 70.7589 105.604H104.436C106.876 105.604 109.216 104.635 110.941 102.91C112.666 101.184 113.636 98.8442 113.636 96.4042V36.4102H114.216V25.0955Z" fill="#2C271F"/>
<path d="M111.677 9.26373V96.3403C111.677 97.2425 111.499 98.1358 111.154 98.9694C110.809 99.8029 110.303 100.56 109.665 101.198C109.027 101.836 108.27 102.342 107.436 102.687C106.603 103.033 105.709 103.21 104.807 103.21H70.9674C70.0652 103.21 69.1719 103.033 68.3384 102.687C67.5049 102.342 66.7475 101.836 66.1096 101.198C65.4717 100.56 64.9656 99.8028 64.6204 98.9693C64.2752 98.1358 64.0975 97.2425 64.0976 96.3403V9.26373C64.0975 8.36156 64.2752 7.4682 64.6204 6.63469C64.9656 5.80118 65.4717 5.04383 66.1096 4.40589C66.7475 3.76796 67.5049 3.26193 68.3384 2.9167C69.1719 2.57147 70.0652 2.3938 70.9674 2.39384H75.0743C74.8721 2.88942 74.7948 3.42713 74.8494 3.9596C74.9039 4.49207 75.0886 5.00295 75.3871 5.44724C75.6856 5.89152 76.0888 6.25556 76.5612 6.50729C77.0336 6.75902 77.5606 6.89071 78.0958 6.89076H97.3897C97.9248 6.89036 98.4517 6.75845 98.9238 6.50662C99.396 6.2548 99.7991 5.89078 100.098 5.44661C100.396 5.00243 100.581 4.4917 100.635 3.95938C100.69 3.42705 100.613 2.88944 100.411 2.39384H104.807C105.709 2.3938 106.603 2.57147 107.436 2.9167C108.27 3.26193 109.027 3.76796 109.665 4.4059C110.303 5.04384 110.809 5.80118 111.154 6.63469C111.499 7.46821 111.677 8.36156 111.677 9.26373Z" fill="#F1F1F1"/>
<path opacity="0.2" d="M118.099 22.2022L113.595 23.8614L113.677 24.0819L118.181 22.4227L118.099 22.2022Z" fill="black"/>
<path opacity="0.2" d="M118.099 35.8292L113.595 37.4884L113.677 37.7089L118.181 36.0497L118.099 35.8292Z" fill="black"/>
<path opacity="0.2" d="M118.099 50.396L113.595 52.0552L113.677 52.2757L118.181 50.6165L118.099 50.396Z" fill="black"/>
<path opacity="0.2" d="M115.74 64.9671L113.547 66.0196L113.649 66.2314L115.841 65.1789L115.74 64.9671Z" fill="black"/>
<path d="M0 129.444L40.7588 82.9434L42.2154 53.0833L57.5096 27.5929L61.8794 16.6685C61.8794 16.6685 72.0755 17.7609 63.7001 38.5174L60.2407 49.6239C63.3591 56.3404 62.6252 63.6563 62.6252 71.0615V96.5119C62.6252 102.505 36.4167 135.148 33.0925 140.134L0 129.444Z" fill="#9F616A"/>
<path opacity="0.2" d="M60.6806 29.7529L57.6399 28.2586L57.7435 28.0477L60.5528 29.4284L64.7936 18.31L65.013 18.3939L60.6806 29.7529Z" fill="black"/>
<path d="M87.7532 98.6783C89.6347 98.6783 91.1599 97.2056 91.1599 95.389C91.1599 93.5724 89.6347 92.0997 87.7532 92.0997C85.8717 92.0997 84.3464 93.5724 84.3464 95.389C84.3464 97.2056 85.8717 98.6783 87.7532 98.6783Z" fill="#DD901D"/>
</svg>
