<svg width="57" height="113" viewBox="0 0 57 113" fill="none" xmlns="http://www.w3.org/2000/svg">
<path d="M56.3448 26.853H55.7239V9.84423C55.7239 8.55146 55.4693 7.27136 54.9746 6.077C54.4798 4.88264 53.7547 3.79742 52.8406 2.8833C51.9265 1.96918 50.8412 1.24406 49.6469 0.74934C48.4525 0.254623 47.1724 -3.1097e-06 45.8797 0H9.84425C8.55149 -3.1097e-06 7.27138 0.254623 6.07702 0.74934C4.88266 1.24406 3.79744 1.96918 2.88331 2.8833C1.96919 3.79742 1.24407 4.88264 0.749351 6.077C0.254631 7.27136 0 8.55146 0 9.84423V103.156C0 104.449 0.254631 105.729 0.749351 106.923C1.24407 108.117 1.96919 109.203 2.88331 110.117C3.79744 111.031 4.88266 111.756 6.07702 112.251C7.27138 112.745 8.55149 113 9.84425 113H45.8797C47.1724 113 48.4525 112.745 49.6469 112.251C50.8412 111.756 51.9265 111.031 52.8406 110.117C53.7547 109.203 54.4798 108.117 54.9746 106.923C55.4693 105.729 55.7239 104.449 55.7239 103.156V38.9602H56.3448V26.853Z" fill="#2C271F"/>
<path d="M53.6285 9.91302V103.087C53.6269 104.176 53.384 105.252 52.9172 106.237C52.4505 107.222 51.7714 108.091 50.9289 108.782C50.7426 108.935 50.5483 109.077 50.3469 109.21C49.1416 110.013 47.7251 110.441 46.2766 110.438H10.0678C9.48088 110.44 8.89595 110.369 8.32584 110.23C6.72576 109.84 5.30305 108.923 4.28581 107.628C3.26857 106.333 2.71574 104.734 2.71594 103.087V9.91302C2.71612 7.96323 3.49075 6.09335 4.86946 4.71464C6.24817 3.33594 8.11805 2.56131 10.0678 2.56113H14.4615C14.2451 3.0914 14.1626 3.66674 14.221 4.23645C14.2794 4.80617 14.4771 5.35276 14.7966 5.82807C15.1161 6.30337 15.5476 6.69281 16.053 6.96205C16.5585 7.23129 17.1224 7.37207 17.6951 7.37199H38.3385C38.911 7.37137 39.4746 7.23017 39.9797 6.96079C40.4849 6.6914 40.9162 6.30209 41.2357 5.82704C41.5552 5.35199 41.7532 4.80575 41.8122 4.2363C41.8712 3.66685 41.7895 3.09161 41.5742 2.56113H46.2766C48.2264 2.5613 50.0963 3.33593 51.475 4.71464C52.8537 6.09335 53.6283 7.96323 53.6285 9.91302Z" fill="#F1F1F1"/>
<path d="M33 46H23C20.2386 46 18 48.2386 18 51V61C18 63.7614 20.2386 66 23 66H33C35.7614 66 38 63.7614 38 61V51C38 48.2386 35.7614 46 33 46Z" stroke="black" stroke-width="2" stroke-linecap="round" stroke-linejoin="round"/>
<path d="M32 55.37C32.1234 56.2022 31.9812 57.0522 31.5937 57.799C31.2062 58.5458 30.5931 59.1514 29.8416 59.5297C29.0901 59.9079 28.2384 60.0396 27.4077 59.9059C26.5771 59.7723 25.8097 59.3801 25.2148 58.7852C24.6199 58.1902 24.2277 57.4229 24.094 56.5922C23.9604 55.7615 24.092 54.9099 24.4703 54.1584C24.8485 53.4069 25.4541 52.7937 26.2009 52.4062C26.9477 52.0187 27.7977 51.8766 28.63 52C29.4789 52.1259 30.2648 52.5215 30.8716 53.1283C31.4785 53.7351 31.8741 54.5211 32 55.37Z" stroke="black" stroke-width="2" stroke-linecap="round" stroke-linejoin="round"/>
<path d="M33.5 50.5H33.51" stroke="black" stroke-width="2" stroke-linecap="round" stroke-linejoin="round"/>
</svg>
